<svg xmlns="http://www.w3.org/2000/svg" xmlns:xlink="http://www.w3.org/1999/xlink" viewBox="0 0 400 400"><defs><linearGradient id="linear-gradient" x1="5.22" y1="391.81" x2="410.22" y2="-6.53" gradientTransform="translate(483 200.07) rotate(135)" gradientUnits="userSpaceOnUse"><stop offset="0.13" stop-color="#8e2de2"/><stop offset="0.49" stop-color="#4a00e0"/><stop offset="0.83" stop-color="#8e2de2"/></linearGradient><linearGradient id="linear-gradient-2" x1="111.26" y1="287.4" x2="308.85" y2="93.07" gradientTransform="translate(-83.01 217.63) rotate(-45)" xlink:href="#linear-gradient"/></defs><g id="Layer_2" data-name="Layer 2"><g id="Layer_1-2" data-name="Layer 1"><path d="M58.71,341.56l-.13-.14A202.4,202.4,0,0,1,42.11,322.8,199.12,199.12,0,0,1,7.74,255.23c-.31-1.07-.61-2.14-.89-3.23a199,199,0,0,1-5.61-29.74c-.36-3.24-.65-6.48-.85-9.73q-.61-9.81-.26-19.63c.06-1.71.14-3.43.25-5.14,0-1,.13-1.93.2-2.89a25.23,25.23,0,0,1,1.94-5.57,25,25,0,0,1,20.24-13.92c.37,0,.75-.06,1.12-.07A25,25,0,0,1,50,191.38l.27.27A150.24,150.24,0,0,0,53,229.74c.63,3.13,1.36,6.23,2.18,9.32a149,149,0,0,0,22.7,48,150.94,150.94,0,0,0,16.09,19l.14.13a150.27,150.27,0,0,0,19.17,16.19A149.3,149.3,0,0,0,161.37,345q4.42,1.17,8.89,2.07a150.61,150.61,0,0,0,21.65,2.75,152.81,152.81,0,0,0,16.44,0,149.19,149.19,0,0,0,21.73-2.8q4.41-.89,8.76-2.06a149.51,149.51,0,0,0,48.08-22.63,151.61,151.61,0,0,0,35.35-35.36,149.33,149.33,0,0,0,22.64-48.07q1.15-4.36,2.06-8.77a151,151,0,0,0,.07-59.82q-.9-4.47-2.07-8.89a149.3,149.3,0,0,0-22.58-48.13A151,151,0,0,0,306.2,94.07l-.14-.14a149.34,149.34,0,0,0-67-38.79q-4.63-1.23-9.32-2.18a150.79,150.79,0,0,0-21.13-2.72,154.76,154.76,0,0,0-17,0,148.09,148.09,0,0,0-21.05,2.66q-4.75.95-9.45,2.2a149.32,149.32,0,0,0-48.07,22.63A151.23,151.23,0,0,0,99.53,88.61q-2.85,2.58-5.6,5.32a25,25,0,0,1-35.22.14l-.13-.14a25,25,0,0,1-2.08-33l8.44-8.45Q71,46.95,77.35,42a198.42,198.42,0,0,1,44.54-26.17,196.44,196.44,0,0,1,23.26-8.19c1-.3,2-.58,3.06-.85A200.5,200.5,0,0,1,178,1.21c3.25-.35,6.5-.63,9.77-.83a198.75,198.75,0,0,1,24.77,0c3.24.2,6.49.48,9.72.84A198.91,198.91,0,0,1,252,6.85c1.08.29,2.16.58,3.23.9A198.29,198.29,0,0,1,322.8,42.12a200.81,200.81,0,0,1,18.62,16.46l.14.14a201.12,201.12,0,0,1,16.56,18.79,198.58,198.58,0,0,1,26.13,44.58,195.77,195.77,0,0,1,8,22.68c.35,1.22.69,2.44,1,3.66a199.87,199.87,0,0,1,5.55,29.8q.51,4.62.79,9.24a196.72,196.72,0,0,1,0,25.35c-.19,3.08-.46,6.13-.8,9.19a200.71,200.71,0,0,1-5.57,29.78c-.34,1.27-.7,2.56-1.07,3.83a199,199,0,0,1-19.82,46,201.09,201.09,0,0,1-70.72,70.71,198.69,198.69,0,0,1-46,19.82c-1.28.37-2.56.73-3.84,1.07A200.58,200.58,0,0,1,222,398.78c-3.06.35-6.12.61-9.19.8a196.73,196.73,0,0,1-25.35,0c-3.08-.19-6.17-.45-9.24-.78a200.92,200.92,0,0,1-29.8-5.55c-1.23-.33-2.45-.66-3.67-1a198.6,198.6,0,0,1-46.2-19.83,199.15,199.15,0,0,1-21.06-14.3A203.7,203.7,0,0,1,58.71,341.56Z" style="fill:url(#linear-gradient)"/><path d="M268.93,139.79l.06.06a99.22,99.22,0,0,1,8,9.09,97.61,97.61,0,0,1,7,10.25,97,97,0,0,1,9.77,22.71c.16.53.3,1,.44,1.58A98.66,98.66,0,0,1,297,198c.17,1.58.31,3.16.41,4.75a95.49,95.49,0,0,1,.13,9.57c0,.84-.07,1.68-.12,2.51,0,.47-.06.94-.1,1.41a12.38,12.38,0,0,1-1,2.72,12,12,0,0,1-2.33,3.27,12.22,12.22,0,0,1-7.54,3.52,5.07,5.07,0,0,1-.55,0,12.17,12.17,0,0,1-12.72-12.72l-.13-.13a73.49,73.49,0,0,0-1.34-18.58c-.3-1.53-.66-3-1.06-4.55a72.83,72.83,0,0,0-11.07-23.43,74.12,74.12,0,0,0-7.86-9.26l-.06-.06a73,73,0,0,0-9.35-7.9,71.52,71.52,0,0,0-10.87-6.38,72.74,72.74,0,0,0-12.62-4.64c-1.43-.38-2.88-.72-4.33-1a73.82,73.82,0,0,0-29.19,0c-1.43.3-2.86.63-4.27,1a73.09,73.09,0,0,0-23.46,11,74.07,74.07,0,0,0-17.25,17.25,73.09,73.09,0,0,0-11,23.46c-.38,1.41-.72,2.84-1,4.27a73.6,73.6,0,0,0,0,29.19c.29,1.45.63,2.9,1,4.34a73.43,73.43,0,0,0,4.63,12.61,72.42,72.42,0,0,0,6.39,10.87,73.73,73.73,0,0,0,7.89,9.35l.07.07a74.89,74.89,0,0,0,9.26,7.85,72.56,72.56,0,0,0,23.43,11.07c1.51.4,3,.76,4.55,1.07a73.56,73.56,0,0,0,28.85,0c1.55-.31,3.08-.66,4.61-1.07a72.58,72.58,0,0,0,12.6-4.65A73.74,73.74,0,0,0,249,263.19c.92-.83,1.83-1.7,2.72-2.59a12.2,12.2,0,0,1,17.19-.07l.06.07a12.2,12.2,0,0,1,1,16.1l-4.12,4.12q-3,2.7-6.06,5.12a97.64,97.64,0,0,1-10.26,7,97.46,97.46,0,0,1-22.81,9.78l-1.5.41a97.2,97.2,0,0,1-14.52,2.72c-1.59.18-3.18.31-4.77.41a95.47,95.47,0,0,1-12.08,0c-1.59-.1-3.17-.23-4.75-.41a97.13,97.13,0,0,1-14.51-2.74l-1.58-.43a97.73,97.73,0,0,1-11.25-4,96.66,96.66,0,0,1-21.71-12.78,100.62,100.62,0,0,1-9.09-8l-.07-.07a100.6,100.6,0,0,1-8.08-9.17A96.8,96.8,0,0,1,106.2,235.8c-.17-.6-.33-1.19-.49-1.79A96.64,96.64,0,0,1,103,219.47c-.16-1.5-.29-3-.38-4.51a96.34,96.34,0,0,1,0-12.37c.09-1.5.22-3,.39-4.48a96.31,96.31,0,0,1,2.72-14.53c.16-.62.33-1.24.52-1.87A97.2,97.2,0,0,1,122.91,149a98.7,98.7,0,0,1,17.25-17.25,95.25,95.25,0,0,1,10.27-7A93.87,93.87,0,0,1,161.89,119a95.43,95.43,0,0,1,11-3.89c.62-.18,1.25-.36,1.87-.52a96.31,96.31,0,0,1,14.53-2.72c1.49-.17,3-.3,4.48-.39a96.34,96.34,0,0,1,12.37,0c1.5.09,3,.22,4.51.38a97.91,97.91,0,0,1,14.54,2.71l1.79.49a97.54,97.54,0,0,1,42,24.74Z" style="fill:url(#linear-gradient-2)"/></g></g></svg>