<svg xmlns="http://www.w3.org/2000/svg" viewBox="0 0 1259.92 400"><g id="Layer_2" data-name="Layer 2"><g id="Layer_1-2" data-name="Layer 1"><path d="M58.71,341.56l-.13-.14A202.4,202.4,0,0,1,42.11,322.8,199.12,199.12,0,0,1,7.74,255.23c-.31-1.07-.61-2.14-.89-3.23a199,199,0,0,1-5.61-29.74c-.36-3.24-.65-6.48-.85-9.73q-.61-9.81-.26-19.63c.06-1.71.14-3.43.25-5.14,0-1,.13-1.93.2-2.89a25.23,25.23,0,0,1,1.94-5.57,25,25,0,0,1,20.24-13.92c.37,0,.75-.06,1.12-.07A25,25,0,0,1,50,191.38l.27.27A150.24,150.24,0,0,0,53,229.74c.63,3.13,1.36,6.23,2.18,9.32a149,149,0,0,0,22.7,48,150.94,150.94,0,0,0,16.09,19l.14.13a150.27,150.27,0,0,0,19.17,16.19A149.3,149.3,0,0,0,161.37,345q4.42,1.17,8.89,2.07a150.61,150.61,0,0,0,21.65,2.75,152.81,152.81,0,0,0,16.44,0,149.19,149.19,0,0,0,21.73-2.8q4.41-.89,8.76-2.06a149.51,149.51,0,0,0,48.08-22.63,151.61,151.61,0,0,0,35.35-35.36,149.33,149.33,0,0,0,22.64-48.07q1.15-4.36,2.06-8.77a151,151,0,0,0,.07-59.82q-.9-4.47-2.07-8.89a149.3,149.3,0,0,0-22.58-48.13A151,151,0,0,0,306.2,94.07l-.14-.14a149.34,149.34,0,0,0-67-38.79q-4.63-1.23-9.32-2.18a150.79,150.79,0,0,0-21.13-2.72,154.76,154.76,0,0,0-17,0,148.09,148.09,0,0,0-21.05,2.66q-4.75.95-9.45,2.2a149.32,149.32,0,0,0-48.07,22.63A151.23,151.23,0,0,0,99.53,88.61q-2.85,2.58-5.6,5.32a25,25,0,0,1-35.22.14l-.13-.14a25,25,0,0,1-2.08-33l8.44-8.45Q71,46.95,77.35,42a198.42,198.42,0,0,1,44.54-26.17,196.44,196.44,0,0,1,23.26-8.19c1-.3,2-.58,3.06-.85A200.5,200.5,0,0,1,178,1.21c3.25-.35,6.5-.63,9.77-.83a198.75,198.75,0,0,1,24.77,0c3.24.2,6.49.48,9.72.84A198.91,198.91,0,0,1,252,6.85c1.08.29,2.16.58,3.23.9A198.29,198.29,0,0,1,322.8,42.12a200.81,200.81,0,0,1,18.62,16.46l.14.14a201.12,201.12,0,0,1,16.56,18.79,198.58,198.58,0,0,1,26.13,44.58,195.77,195.77,0,0,1,8,22.68c.35,1.22.69,2.44,1,3.66a199.87,199.87,0,0,1,5.55,29.8q.51,4.62.79,9.24a196.72,196.72,0,0,1,0,25.35c-.19,3.08-.46,6.13-.8,9.19a200.71,200.71,0,0,1-5.57,29.78c-.34,1.27-.7,2.56-1.07,3.83a199,199,0,0,1-19.82,46,201.09,201.09,0,0,1-70.72,70.71,198.69,198.69,0,0,1-46,19.82c-1.28.37-2.56.73-3.84,1.07A200.58,200.58,0,0,1,222,398.78c-3.06.35-6.12.61-9.19.8a196.73,196.73,0,0,1-25.35,0c-3.08-.19-6.17-.45-9.24-.78a200.92,200.92,0,0,1-29.8-5.55c-1.23-.33-2.45-.66-3.67-1a198.6,198.6,0,0,1-46.2-19.83,199.15,199.15,0,0,1-21.06-14.3A203.7,203.7,0,0,1,58.71,341.56Z" style="fill:#fff"/><path d="M268.93,139.79l.06.06a99.22,99.22,0,0,1,8,9.09,97.61,97.61,0,0,1,7,10.25,97,97,0,0,1,9.77,22.71c.16.53.3,1,.44,1.58A98.66,98.66,0,0,1,297,198c.17,1.58.31,3.16.41,4.75a95.49,95.49,0,0,1,.13,9.57c0,.84-.07,1.68-.12,2.51,0,.47-.06.94-.1,1.41a12.38,12.38,0,0,1-1,2.72,12,12,0,0,1-2.33,3.27,12.22,12.22,0,0,1-7.54,3.52,5.07,5.07,0,0,1-.55,0,12.17,12.17,0,0,1-12.72-12.72l-.13-.13a73.49,73.49,0,0,0-1.34-18.58c-.3-1.53-.66-3-1.06-4.55a72.83,72.83,0,0,0-11.07-23.43,74.12,74.12,0,0,0-7.86-9.26l-.06-.06a73,73,0,0,0-9.35-7.9,71.52,71.52,0,0,0-10.87-6.38,72.74,72.74,0,0,0-12.62-4.64c-1.43-.38-2.88-.72-4.33-1a73.82,73.82,0,0,0-29.19,0c-1.43.3-2.86.63-4.27,1a73.09,73.09,0,0,0-23.46,11,74.07,74.07,0,0,0-17.25,17.25,73.09,73.09,0,0,0-11,23.46c-.38,1.41-.72,2.84-1,4.27a73.6,73.6,0,0,0,0,29.19c.29,1.45.63,2.9,1,4.34a73.43,73.43,0,0,0,4.63,12.61,72.42,72.42,0,0,0,6.39,10.87,73.73,73.73,0,0,0,7.89,9.35l.07.07a74.89,74.89,0,0,0,9.26,7.85,72.56,72.56,0,0,0,23.43,11.07c1.51.4,3,.76,4.55,1.07a73.56,73.56,0,0,0,28.85,0c1.55-.31,3.08-.66,4.61-1.07a72.58,72.58,0,0,0,12.6-4.65A73.74,73.74,0,0,0,249,263.19c.92-.83,1.83-1.7,2.72-2.59a12.2,12.2,0,0,1,17.19-.07l.06.07a12.2,12.2,0,0,1,1,16.1l-4.12,4.12q-3,2.7-6.06,5.12a97.64,97.64,0,0,1-10.26,7,97.46,97.46,0,0,1-22.81,9.78l-1.5.41a97.2,97.2,0,0,1-14.52,2.72c-1.59.18-3.18.31-4.77.41a95.47,95.47,0,0,1-12.08,0c-1.59-.1-3.17-.23-4.75-.41a97.13,97.13,0,0,1-14.51-2.74l-1.58-.43a97.73,97.73,0,0,1-11.25-4,96.66,96.66,0,0,1-21.71-12.78,100.62,100.62,0,0,1-9.09-8l-.07-.07a100.6,100.6,0,0,1-8.08-9.17A96.8,96.8,0,0,1,106.2,235.8c-.17-.6-.33-1.19-.49-1.79A96.64,96.64,0,0,1,103,219.47c-.16-1.5-.29-3-.38-4.51a96.34,96.34,0,0,1,0-12.37c.09-1.5.22-3,.39-4.48a96.31,96.31,0,0,1,2.72-14.53c.16-.62.33-1.24.52-1.87A97.2,97.2,0,0,1,122.91,149a98.7,98.7,0,0,1,17.25-17.25,95.25,95.25,0,0,1,10.27-7A93.87,93.87,0,0,1,161.89,119a95.43,95.43,0,0,1,11-3.89c.62-.18,1.25-.36,1.87-.52a96.31,96.31,0,0,1,14.53-2.72c1.49-.17,3-.3,4.48-.39a96.34,96.34,0,0,1,12.37,0c1.5.09,3,.22,4.51.38a97.91,97.91,0,0,1,14.54,2.71l1.79.49a97.54,97.54,0,0,1,42,24.74Z" style="fill:#fff"/><path d="M445.84,188.5c0-54.91,34.63-91.52,86.33-91.52,52.2,0,86.33,36.61,86.33,91.52,0,27-8.16,49.48-22.76,65.31l19.55,18.3v41.81l-44.53-42.06c-11.38,5.2-24.24,7.92-38.59,7.92C480.47,279.78,445.84,243.42,445.84,188.5Zm86.33,59.87c27.71,0,46-23.75,46-59.87s-18.3-60.1-46-60.1-46,24-46,60.1S504.47,248.37,532.17,248.37Z" style="fill:#fff"/><path d="M677.13,131.86H629.88V101.19H762v30.67H715V275.57H677.13Z" style="fill:#fff"/><path d="M790.43,101.19h112.3v30.42H828v39.08h61.09v29.69H828v44.77h75.44v30.42h-113Z" style="fill:#fff"/><path d="M924.25,188.5c0-54.91,33.89-91.52,83.36-91.52,37.85,0,63.33,16.82,73.71,47.74l-35.62,12.37c-6.43-19.54-19.54-28.69-38.83-28.69-26.22,0-42.3,23-42.3,60.1s16.08,59.87,42.55,59.87c19.54,0,32.65-9.4,39.08-29.94l35.87,10.15c-9.9,33.39-35.13,51.2-74.21,51.2C958.14,279.78,924.25,243.17,924.25,188.5Z" style="fill:#fff"/><path d="M1222.32,200.62h-75v74.95h-37.6V101.19h37.6v68.27h75V101.19h37.6V275.57h-37.6Z" style="fill:#fff"/><path d="M445.84,188.5c0-54.91,34.63-91.52,86.33-91.52,52.2,0,86.33,36.61,86.33,91.52,0,27-8.16,49.48-22.76,65.31l19.55,18.3v41.81l-44.53-42.06c-11.38,5.2-24.24,7.92-38.59,7.92C480.47,279.78,445.84,243.42,445.84,188.5Zm86.33,59.87c27.71,0,46-23.75,46-59.87s-18.3-60.1-46-60.1-46,24-46,60.1S504.47,248.37,532.17,248.37Z" style="fill:#fff"/><path d="M677.13,131.86H629.88V101.19H762v30.67H715V275.57H677.13Z" style="fill:#fff"/><path d="M790.43,101.19h112.3v30.42H828v39.08h61.09v29.69H828v44.77h75.44v30.42h-113Z" style="fill:#fff"/><path d="M924.25,188.5c0-54.91,33.89-91.52,83.36-91.52,37.85,0,63.33,16.82,73.71,47.74l-35.62,12.37c-6.43-19.54-19.54-28.69-38.83-28.69-26.22,0-42.3,23-42.3,60.1s16.08,59.87,42.55,59.87c19.54,0,32.65-9.4,39.08-29.94l35.87,10.15c-9.9,33.39-35.13,51.2-74.21,51.2C958.14,279.78,924.25,243.17,924.25,188.5Z" style="fill:#fff"/><path d="M1222.32,200.62h-75v74.95h-37.6V101.19h37.6v68.27h75V101.19h37.6V275.57h-37.6Z" style="fill:#fff"/><path d="M468.71,322.93h-10.9v-3.85H484v3.85H473.11v31.4h-4.4Z" style="fill:#fff"/><path d="M490.76,317.38a2.78,2.78,0,0,1,0,5.55,2.78,2.78,0,1,1,0-5.55Zm-2.2,10.5h4.25v26.45h-4.25Z" style="fill:#fff"/><path d="M500.26,317.58h4.25v23.2h.25l12.1-12.9h4.91l-10.26,10.95,10.76,15.5h-4.8l-8.91-12.95-4.05,4.05v8.9h-4.25Z" style="fill:#fff"/><path d="M529.51,347.43v-16.3h-4.9v-3.25h4.9v-5.95l4.25-2.7v8.65h6.1v3.25h-6.1V347c0,2.9,1.25,4.25,3.5,4.25a5.66,5.66,0,0,0,2.6-.6v3.5a7.78,7.78,0,0,1-3.55.7C531.86,354.83,529.51,352.48,529.51,347.43Z" style="fill:#fff"/><path d="M543,341.13c0-8.5,5.4-13.85,12.6-13.85s12.61,5.35,12.61,13.85-5.45,13.8-12.61,13.8S543,349.63,543,341.13Zm12.6,10.2c4.45,0,8.16-3.15,8.16-10.2s-3.71-10.25-8.16-10.25-8.2,3.2-8.2,10.25S551.11,351.33,555.56,351.33Z" style="fill:#fff"/><path d="M574.11,317.58h4.25v23.2h.25l12.1-12.9h4.9l-10.25,10.95,10.75,15.5h-4.8l-8.9-12.95-4,4.05v8.9h-4.25Z" style="fill:#fff"/><path d="M613.16,358.33l3.75-1.55c1.25,3,3.7,4.75,7.75,4.75,5.1,0,7.85-3,7.85-8.95v-4.1h-.2a9.76,9.76,0,0,1-8.55,5.4c-6.6,0-11.1-5.3-11.1-13.3s4.5-13.3,11.2-13.3a9.33,9.33,0,0,1,8.7,5.2h.2v-4.6h4v25.3c0,7.35-4.4,11.75-12.05,11.75C619.06,364.93,615,363,613.16,358.33Zm11.75-8c4.85,0,7.85-3.85,7.85-9.75s-3-9.7-7.85-9.7-7.75,3.75-7.75,9.7S620.11,350.33,624.91,350.33Z" style="fill:#fff"/><path d="M659.76,350.13h-.25a8.83,8.83,0,0,1-8,4.8c-5.3,0-8.75-3-8.75-7.55,0-4.3,3.25-7.3,9.15-8.1l7.6-1v-1.85c0-3.4-1.9-5.6-5.75-5.6-3.4,0-5.4,1.35-6.25,4.45l-4-1.15c1.15-4.25,5.15-6.8,10.3-6.8,6.7,0,9.95,3.45,9.95,9.2V349l2,5.35h-4.5Zm-7.4,1.4c4.35,0,7.2-3.2,7.2-8.2v-2l-6.5.9c-4,.5-5.9,2.2-5.9,5C647.16,349.93,649.06,351.53,652.36,351.53Z" style="fill:#fff"/><path d="M671.41,327.88h3.9v4.35h.25a7.77,7.77,0,0,1,7.55-5,7.57,7.57,0,0,1,7.55,5h.25a8.13,8.13,0,0,1,7.75-5c4.7,0,8.3,3,8.3,9.3v17.75h-4.25V337c0-3.85-2-6.05-5.55-6.05s-5.85,2.5-5.85,6.85v16.55h-4.25V337c0-3.8-2-6.05-5.35-6.05-3.75,0-6.05,2.75-6.05,7.25v16.15h-4.25Z" style="fill:#fff"/><path d="M712.71,341c0-8.2,5.25-13.7,12.3-13.7s11.7,4.65,11.7,12.2c0,.95-.05,1.95-.1,2.5h-19.5c.25,6,3,9.4,8.4,9.4a7.46,7.46,0,0,0,7.1-4L736,349c-1.8,3.9-5.45,5.9-10.8,5.9C717.36,354.93,712.71,349.38,712.71,341Zm19.8-2.15c-.15-5.2-3.1-8.15-7.55-8.15-4.15,0-7.3,2.4-7.8,8.15Z" style="fill:#fff"/><path d="M756,317.58h4.25v36.75H756Z" style="fill:#fff"/><path d="M769.91,317.38a2.78,2.78,0,0,1,0,5.55,2.78,2.78,0,1,1,0-5.55Zm-2.2,10.5H772v26.45h-4.25Z" style="fill:#fff"/><path d="M776.66,327.88h4.6l7.4,23.65h.25l7.4-23.65h4.6l-9.1,26.45h-6Z" style="fill:#fff"/><path d="M803.56,341c0-8.2,5.25-13.7,12.3-13.7s11.7,4.65,11.7,12.2c0,.95,0,1.95-.1,2.5H808c.25,6,3,9.4,8.4,9.4a7.46,7.46,0,0,0,7.1-4l3.4,1.65c-1.8,3.9-5.45,5.9-10.8,5.9C808.21,354.93,803.56,349.38,803.56,341Zm19.8-2.15c-.15-5.2-3.1-8.15-7.55-8.15-4.15,0-7.3,2.4-7.8,8.15Z" style="fill:#fff"/><path d="M831.46,348.18l3.8-1.5c1.15,3.5,3.55,4.85,7.2,4.85s5.65-1.5,5.65-4.3c0-2.25-1.3-3.35-4.1-4.1l-4.6-1.2c-4.4-1.15-6.6-3.5-6.6-7.1,0-4.55,4-7.55,9.8-7.55,4.9,0,8.4,2.1,9.7,5.75l-3.6,1.45c-1.1-2.6-3.25-3.8-6.15-3.8-3.6,0-5.55,1.4-5.55,4,0,1.8,1.1,3.05,4.15,3.85l4.85,1.25c4,1,6.3,3.25,6.3,7.3,0,4.8-3.9,7.85-9.9,7.85C836.76,354.93,833,352.58,831.46,348.18Z" style="fill:#fff"/><path d="M860.56,347.43v-16.3h-4.9v-3.25h4.9v-5.95l4.25-2.7v8.65h6.1v3.25h-6.1V347c0,2.9,1.25,4.25,3.5,4.25a5.66,5.66,0,0,0,2.6-.6v3.5a7.78,7.78,0,0,1-3.55.7C862.91,354.83,860.56,352.48,860.56,347.43Z" style="fill:#fff"/><path d="M876.16,327.88h4V333h.15a7.17,7.17,0,0,1,7-5.7,5.31,5.31,0,0,1,1.7.25v3.85a9.16,9.16,0,0,0-1.85-.15c-3.9,0-6.65,2.95-6.65,7.15v15.95h-4.25Z" style="fill:#fff"/><path d="M891,341c0-8.2,5.25-13.7,12.3-13.7s11.7,4.65,11.7,12.2c0,.95-.05,1.95-.1,2.5h-19.5c.25,6,3,9.4,8.4,9.4a7.46,7.46,0,0,0,7.1-4l3.4,1.65c-1.8,3.9-5.45,5.9-10.8,5.9C895.61,354.93,891,349.38,891,341Zm19.8-2.15c-.15-5.2-3.1-8.15-7.55-8.15-4.15,0-7.3,2.4-7.8,8.15Z" style="fill:#fff"/><path d="M936.41,350.13h-.25a8.83,8.83,0,0,1-7.95,4.8c-5.3,0-8.75-3-8.75-7.55,0-4.3,3.25-7.3,9.15-8.1l7.6-1v-1.85c0-3.4-1.9-5.6-5.75-5.6-3.4,0-5.4,1.35-6.25,4.45l-4-1.15c1.15-4.25,5.15-6.8,10.3-6.8,6.7,0,10,3.45,10,9.2V349l1.95,5.35h-4.5Zm-7.4,1.4c4.35,0,7.2-3.2,7.2-8.2v-2l-6.5.9c-4,.5-5.9,2.2-5.9,5C923.81,349.93,925.71,351.53,929,351.53Z" style="fill:#fff"/><path d="M948.06,327.88H952v4.35h.25a7.77,7.77,0,0,1,7.55-5,7.57,7.57,0,0,1,7.55,5h.25a8.13,8.13,0,0,1,7.75-5c4.7,0,8.3,3,8.3,9.3v17.75h-4.25V337c0-3.85-2-6.05-5.55-6.05s-5.85,2.5-5.85,6.85v16.55h-4.25V337c0-3.8-2-6.05-5.35-6.05-3.75,0-6.05,2.75-6.05,7.25v16.15h-4.25Z" style="fill:#fff"/><path d="M1007.06,347.43v-16.3h-4.9v-3.25h4.9v-5.95l4.25-2.7v8.65h6.1v3.25h-6.1V347c0,2.9,1.25,4.25,3.5,4.25a5.66,5.66,0,0,0,2.6-.6v3.5a7.78,7.78,0,0,1-3.55.7C1009.41,354.83,1007.06,352.48,1007.06,347.43Z" style="fill:#fff"/><path d="M1020.51,341c0-8.2,5.25-13.7,12.3-13.7s11.7,4.65,11.7,12.2c0,.95,0,1.95-.1,2.5h-19.5c.25,6,3,9.4,8.4,9.4a7.46,7.46,0,0,0,7.1-4l3.4,1.65c-1.8,3.9-5.45,5.9-10.8,5.9C1025.16,354.93,1020.51,349.38,1020.51,341Zm19.8-2.15c-.15-5.2-3.1-8.15-7.55-8.15-4.15,0-7.3,2.4-7.8,8.15Z" style="fill:#fff"/><path d="M1049,341.08c0-8.8,5.3-13.8,12-13.8,5,0,8.55,2,10.35,6.55l-3.65,1.6c-1.4-3.15-3.55-4.55-6.8-4.55-3.85,0-7.55,3-7.55,10.2s3.75,10.25,7.7,10.25c3.3,0,5.45-1.45,6.8-4.65l3.6,1.55c-1.75,4.55-5.25,6.7-10.3,6.7C1054.31,354.93,1049,349.88,1049,341.08Z" style="fill:#fff"/><path d="M1076.41,317.58h4.25v14.5h.2a8.33,8.33,0,0,1,8-4.8c5.7,0,9.2,3.25,9.2,9.65v17.4h-4.25v-16.9c0-4.45-2.5-6.5-6-6.5-4.25,0-7,2.55-7,7.4v16h-4.25Z" style="fill:#fff"/><path d="M1116.46,330.93c-4.25,0-7,2.9-7,7.4v16h-4.25V327.88h3.95v4.7h.15a8.58,8.58,0,0,1,8.3-5.3c5.7,0,9.2,3.25,9.2,9.65v17.4h-4.25v-16.9C1122.51,333,1120,330.93,1116.46,330.93Z" style="fill:#fff"/><path d="M1132.46,341.13c0-8.5,5.4-13.85,12.6-13.85s12.6,5.35,12.6,13.85-5.45,13.8-12.6,13.8S1132.46,349.63,1132.46,341.13Zm12.6,10.2c4.45,0,8.15-3.15,8.15-10.2s-3.7-10.25-8.15-10.25-8.2,3.2-8.2,10.25S1140.61,351.33,1145.06,351.33Z" style="fill:#fff"/><path d="M1163.61,317.58h4.25v36.75h-4.25Z" style="fill:#fff"/><path d="M1173.86,341.13c0-8.5,5.4-13.85,12.6-13.85s12.6,5.35,12.6,13.85-5.45,13.8-12.6,13.8S1173.86,349.63,1173.86,341.13Zm12.6,10.2c4.45,0,8.15-3.15,8.15-10.2s-3.7-10.25-8.15-10.25-8.2,3.2-8.2,10.25S1182,351.33,1186.46,351.33Z" style="fill:#fff"/><path d="M1204.16,358.33l3.75-1.55c1.25,3,3.7,4.75,7.75,4.75,5.1,0,7.85-3,7.85-8.95v-4.1h-.2a9.76,9.76,0,0,1-8.55,5.4c-6.6,0-11.1-5.3-11.1-13.3s4.5-13.3,11.2-13.3a9.33,9.33,0,0,1,8.7,5.2h.2v-4.6h4v25.3c0,7.35-4.4,11.75-12,11.75C1210.06,364.93,1206,363,1204.16,358.33Zm11.75-8c4.85,0,7.85-3.85,7.85-9.75s-3-9.7-7.85-9.7-7.75,3.75-7.75,9.7S1211.11,350.33,1215.91,350.33Z" style="fill:#fff"/><path d="M1242.81,355.68l-10.4-27.8H1237l7.8,22.75h.2l7.5-22.75H1257l-13.2,36.45h-4.4Z" style="fill:#fff"/></g></g></svg>